<svg width="103" height="63" viewBox="0 0 103 63" fill="none" xmlns="http://www.w3.org/2000/svg">
<path d="M50.9453 19.5192C53.1085 16.1318 55.2439 12.8277 57.4071 9.44028C50.668 10.5509 44.0398 11.6615 37.3562 12.7444C37.4672 13.5218 37.5504 14.2715 37.6613 15.0212C38.0773 17.9643 38.4655 20.9074 38.8815 23.8506C38.937 24.3226 39.0202 24.8224 39.0757 25.2944C39.1034 25.4888 39.1866 25.5443 39.353 25.5721C41.6826 26.0163 44.0121 26.4883 46.3417 26.9603C47.6451 27.2102 48.9486 27.4879 50.252 27.7378C50.2798 27.7378 50.3075 27.7655 50.3907 27.8211C46.7577 28.9317 43.2079 30.0423 39.6026 31.1529C40.8783 41.7871 42.154 52.3658 43.402 62.9722C43.3743 63 43.3465 63 43.3188 63C33.5845 49.7836 23.8503 36.5672 14.0883 23.3231C14.0606 23.3231 14.0606 23.3508 14.0328 23.3508C15.1699 30.0978 16.3347 36.8726 17.4717 43.7307C15.5859 41.9537 13.7555 40.2323 11.8419 38.4275C11.8974 45.0912 11.9529 51.6717 12.0083 58.2521C11.9806 58.2521 11.9529 58.2521 11.9251 58.2799C7.95934 45.6465 3.99354 33.041 0 20.4077C0.0277329 20.4077 0.0277329 20.3799 0.0554658 20.3799C2.38503 22.7677 4.68686 25.1833 7.01642 27.5712C7.04416 27.5712 7.07189 27.5434 7.07189 27.5434C5.87938 18.6584 4.65913 9.77347 3.46661 0.916263C3.49435 0.888497 3.52208 0.888497 3.54981 0.860732C13.811 12.9387 24.0999 25.0168 34.3611 37.0948C34.3888 37.0948 34.4165 37.067 34.4165 37.067C31.3936 26.1274 28.3708 15.1877 25.3201 4.16483C41.3775 2.77655 57.3794 1.38828 73.4645 0C71.9946 2.4989 70.5802 4.9145 69.1104 7.44116C80.3145 6.66373 91.4631 5.91406 102.584 5.16439C102.584 5.19216 102.584 5.21992 102.584 5.24769C85.4173 9.99559 68.2229 14.7435 50.9453 19.5192Z" fill="white"/>
<path d="M52.0269 22.2957C57.7122 35.0679 63.3974 47.7845 69.1104 60.5844C75.5722 49.7003 82.0062 38.8717 88.468 27.9877C89.6327 30.2922 90.7698 32.569 91.9346 34.9013C95.623 25.933 99.2838 17.0203 103 8.052C85.9443 12.7999 68.9995 17.5478 52.0269 22.2957ZM70.5525 49.7836C67.696 41.2318 64.895 32.7633 62.0662 24.2671C70.4416 22.3235 78.7892 20.3799 87.1922 18.4085C81.6457 28.8762 76.1268 39.2882 70.5525 49.7836Z" fill="white"/>
</svg>
