<svg width="26" height="22" viewBox="0 0 26 22" fill="none" xmlns="http://www.w3.org/2000/svg">
<path d="M16.3289 4.17436C15.343 1.17126 12.3963 -0.535051 9.38305 0.158848C6.36984 0.841371 4.42012 3.67384 4.76354 6.82482C4.92971 8.30363 5.58331 9.55492 6.56925 10.6697C6.392 10.7607 6.24799 10.829 6.10397 10.9086C2.18237 12.8765 0.188335 16.1299 0.0110878 20.5663C-0.033224 21.5673 0.387739 21.9655 1.38476 21.9768C3.62251 21.9768 5.84918 21.9768 8.08693 21.9768C8.97317 21.9768 9.44952 21.556 9.44952 20.7711C9.4606 19.9861 8.99532 19.5539 8.10909 19.5539C6.44739 19.5539 4.78569 19.5539 3.124 19.5539H2.45932C2.5701 19.0875 2.63657 18.7007 2.74735 18.3253C3.79975 14.7876 6.91266 12.3874 10.5684 12.2736C14.8666 12.1371 17.6583 8.224 16.3289 4.17436ZM10.6127 9.81655C8.58544 9.81655 7.08991 8.25812 7.08991 6.17643C7.08991 4.11748 8.62975 2.5363 10.6349 2.5363C12.6289 2.54768 14.1798 4.15161 14.1798 6.19918C14.1687 8.25812 12.6289 9.82793 10.6127 9.81655Z" fill="white"/>
<path d="M25.5126 10.6692C24.6264 9.74782 23.7401 8.83779 22.8539 7.93914C22.1449 7.21111 21.5799 7.21111 20.8598 7.95051C18.4781 10.3848 16.1074 12.8192 13.7367 15.2763C13.5373 15.481 13.349 15.7427 13.2493 16.0157C12.7508 17.4603 12.2744 18.9164 11.8202 20.3724C11.5433 21.2597 12.1304 22.0219 13.1274 21.9991C13.1828 21.9877 13.3379 21.9764 13.4708 21.9309C14.8556 21.4531 16.2293 20.9867 17.6029 20.4976C17.8577 20.4066 18.1014 20.2359 18.2898 20.0426C20.7048 17.5855 23.0976 15.117 25.5015 12.6485C26.1662 11.9546 26.1662 11.3518 25.5126 10.6692ZM22.7099 12.1253C21.0592 13.8088 19.4197 15.4924 17.7802 17.1873C16.6391 18.359 16.6391 18.359 14.911 18.7799C15.2212 17.9267 15.2655 17.0508 15.9412 16.3797C17.7802 14.5482 19.5748 12.6713 21.3916 10.8057C21.5356 10.6579 21.6353 10.4645 21.735 10.3166C22.2778 10.8399 22.6988 11.238 23.2638 11.784C23.0533 11.8978 22.8539 11.9774 22.7099 12.1253Z" fill="white"/>
</svg>
