<svg width="1em" height="1em" viewBox="0 0 14 14" fill="currentColor" xmlns="http://www.w3.org/2000/svg">
    <path d="M11.1003 7.25632C11.0504 7.30617 10.9791 7.3845 10.9079 7.46283C8.9201 9.44961 6.92519 11.4364 4.94453 13.4303C4.5598 13.8148 4.13232 14.0071 3.58372 14C2.67888 13.9857 1.78117 14 0.876336 13.9928C0.249364 13.9857 0 13.7436 0 13.1027C0 12.1556 0 11.2085 0 10.2543C0 9.84127 0.135369 9.48521 0.420356 9.19325C2.50789 7.10678 4.59542 5.01319 6.68295 2.92672C6.70433 2.90536 6.73282 2.89111 6.73995 2.89111C8.20051 4.35805 9.64682 5.80363 11.1003 7.25632Z"
    />
    <path d="M13.6936 4.64308C13.2234 5.17004 12.6748 5.62579 12.1832 6.09578C10.7725 4.67869 9.33332 3.24024 7.87988 1.79466C8.32874 1.33179 8.77759 0.826197 9.27632 0.370449C9.83205 -0.135146 10.6443 -0.113783 11.1857 0.406054C12.0051 1.19649 12.8102 2.00117 13.601 2.82009C14.0926 3.31857 14.1496 4.12325 13.6936 4.64308Z"
    />
</svg>
