<svg width="1em" height="1em" viewBox="0 0 20 18" fill="currentColor" xmlns="http://www.w3.org/2000/svg">
    <path d="M16.3816 18V15.6355C15.7037 15.5209 15.0809 15.4636 14.4739 15.3082C13.2677 14.9973 12.2586 14.3264 11.4309 13.3691C10.7687 12.6 10.1144 11.8145 9.42853 11.0045C8.74268 11.8145 8.08048 12.6 7.4104 13.3773C6.62995 14.2855 5.68395 14.9318 4.55663 15.2591C3.98903 15.4227 3.39778 15.5127 2.81442 15.5373C1.88419 15.5864 0.953953 15.5536 -0.0078125 15.5536V12.9355C0.843587 12.9355 1.6871 12.9518 2.5385 12.9273C2.9169 12.9191 3.30318 12.8782 3.66582 12.7964C4.46203 12.6082 5.10058 12.15 5.62877 11.5118C7.505 9.28636 9.38911 7.06091 11.2575 4.83545C12.5424 3.29727 14.1585 2.49545 16.1215 2.46273C16.1767 2.46273 16.224 2.45455 16.2791 2.44636C16.287 2.44636 16.3028 2.43 16.3422 2.39727V0C17.5641 1.26818 18.786 2.54455 19.9764 3.78C18.8176 4.98273 17.5878 6.25909 16.3737 7.52727V5.09727C15.2464 5.04818 14.2847 5.36727 13.5357 6.16909C12.6922 7.06909 11.9197 8.03454 11.0998 9C11.2023 9.13091 11.289 9.25364 11.3757 9.36C12.0221 10.1291 12.6607 10.9064 13.3308 11.6591C14.127 12.5673 15.1282 12.9764 16.3422 12.9355V10.44C17.572 11.7327 18.7939 13.0091 19.9843 14.2609C18.8412 15.4636 17.6035 16.74 16.3816 18Z"
    />
    <path d="M8.59283 6.02998C8.04099 6.68452 7.49704 7.33089 6.92156 8.01816C6.58258 7.62543 6.24359 7.26543 5.95191 6.8727C4.99803 5.58816 3.76035 4.99089 2.19156 5.08089C1.47418 5.12179 0.748916 5.08907 0 5.08907V2.49543C0.0945999 2.48725 0.197083 2.4627 0.291683 2.47089C1.54513 2.51998 2.81435 2.47907 4.05203 2.65089C5.37643 2.83089 6.47221 3.58361 7.37091 4.60634C7.78873 5.05634 8.17501 5.53907 8.59283 6.02998Z"
    />
</svg>
