<svg width="22" height="22" viewBox="0 0 22 22" fill="none" xmlns="http://www.w3.org/2000/svg">
    <path d="M0.523414 18.9556C2.05191 17.4333 3.58899 15.9024 5.12607 14.3801C5.24629 14.2597 5.40944 14.1823 5.52107 14.0963C2.54137 9.40908 4.21584 4.09399 7.91686 1.54825C11.4719 -0.885683 16.418 -0.412657 19.3977 2.69211C22.5835 6.00329 22.8755 10.8626 20.0761 14.5436C17.4656 17.9665 12.3735 19.3168 7.91686 16.4787C7.8224 16.6077 7.74512 16.7539 7.63349 16.8657C6.08782 18.4224 4.54215 19.9705 2.9879 21.5185C2.34387 22.1636 1.7943 22.155 1.14168 21.5099C0.935594 21.3121 0.738092 21.1057 0.532003 20.8993C-0.180722 20.1855 -0.180722 19.6608 0.523414 18.9556ZM13.0347 14.492C16.1003 14.4318 18.5476 11.9032 18.4617 8.88445C18.3759 5.87429 15.8856 3.46615 12.9231 3.52636C9.90046 3.58656 7.44457 6.1065 7.52185 9.06506C7.59055 12.1182 10.0722 14.5522 13.0347 14.492Z"
          fill="#8E8E8F"/>
</svg>
