<svg width="1em" height="1em" viewBox="0 0 190 190" fill="currentColor" xmlns="http://www.w3.org/2000/svg">
    <g clip-path="url(#clip0_826_5795)">
        <path fill-rule="evenodd" clip-rule="evenodd"
              d="M95 183C143.601 183 183 143.601 183 95C183 46.3989 143.601 7 95 7C46.3989 7 7 46.3989 7 95C7 143.601 46.3989 183 95 183ZM95 190C147.467 190 190 147.467 190 95C190 42.5329 147.467 0 95 0C42.5329 0 0 42.5329 0 95C0 147.467 42.5329 190 95 190Z"
              fill="currentColor"/>
        <path fill-rule="evenodd" clip-rule="evenodd"
              d="M146.106 70.1059L82.5531 133.659L48.8574 99.963L56.5346 92.2859L82.5531 118.304L138.429 62.4287L146.106 70.1059Z"
              fill="currentColor"/>
    </g>
    <defs>
        <clipPath id="clip0_826_5795">
            <rect width="190" height="190" fill="white"/>
        </clipPath>
    </defs>
</svg>
