<svg width="1em" height="1em" viewBox="0 0 70 70" fill="#F44F4F" xmlns="http://www.w3.org/2000/svg">
    <g clip-path="url(#clip0_478_7107)">
        <path fill-rule="evenodd" clip-rule="evenodd"
              d="M35 66C52.1208 66 66 52.1208 66 35C66 17.8792 52.1208 4 35 4C17.8792 4 4 17.8792 4 35C4 52.1208 17.8792 66 35 66ZM35 70C54.33 70 70 54.33 70 35C70 15.67 54.33 0 35 0C15.67 0 0 15.67 0 35C0 54.33 15.67 70 35 70Z"/>
        <path d="M48.4351 18.7363L51.2635 21.5648L21.565 51.2632L18.7366 48.4348L48.4351 18.7363Z"/>
        <path d="M51.2634 48.4346L48.435 51.263L18.7365 21.5645L21.5649 18.7361L51.2634 48.4346Z"/>
    </g>
    <defs>
        <clipPath id="clip0_478_7107">
            <rect width="100%" height="100%" fill="white"/>
        </clipPath>
    </defs>
</svg>
