<svg id="loader-icon" width="1em" height="1em" viewBox="0 0 70 70" fill="#9191A1" xmlns="http://www.w3.org/2000/svg">

    <path d="M32.4075 2.59259C32.4075 1.16074 33.5682 0 35.0001 0C36.4319 0 37.5927 1.16074 37.5927 2.59259V16.8519C37.5927 18.2837 36.4319 19.4444 35.0001 19.4444C33.5682 19.4444 32.4075 18.2837 32.4075 16.8519V2.59259Z"
    />
    <path d="M67.4074 32.4072C68.8393 32.4072 70 33.568 70 34.9998C70 36.4317 68.8393 37.5924 67.4074 37.5924L53.1481 37.5924C51.7163 37.5924 50.5556 36.4317 50.5556 34.9998C50.5556 33.568 51.7163 32.4072 53.1481 32.4072L67.4074 32.4072Z"
    />
    <path d="M32.4075 53.1483C32.4075 51.7164 33.5682 50.5557 35.0001 50.5557C36.4319 50.5557 37.5927 51.7164 37.5927 53.1483V67.4075C37.5927 68.8394 36.4319 70.0001 35.0001 70.0001C33.5682 70.0001 32.4075 68.8394 32.4075 67.4075V53.1483Z"
    />
    <path d="M16.8517 32.4072C18.2836 32.4072 19.4443 33.568 19.4443 34.9998C19.4443 36.4317 18.2836 37.5924 16.8517 37.5924L2.59248 37.5924C1.16063 37.5924 -0.000108895 36.4317 -0.000108832 34.9998C-0.00010877 33.568 1.16063 32.4072 2.59248 32.4072L16.8517 32.4072Z"
    />
    <path d="M48.9583 5.63783C49.6743 4.39781 51.2599 3.97295 52.4999 4.68887C53.7399 5.4048 54.1648 6.9904 53.4488 8.23042L46.3192 20.5793C45.6033 21.8193 44.0177 22.2442 42.7777 21.5283C41.5376 20.8123 41.1128 19.2267 41.8287 17.9867L48.9583 5.63783Z"
    />
    <path d="M61.7694 16.5512C63.0094 15.8353 64.595 16.2601 65.3109 17.5001C66.0269 18.7402 65.602 20.3258 64.362 21.0417L52.0131 28.1713C50.7731 28.8872 49.1875 28.4624 48.4716 27.2224C47.7556 25.9823 48.1805 24.3967 49.4205 23.6808L61.7694 16.5512Z"
    />
    <path d="M64.3619 48.9586C65.6019 49.6745 66.0268 51.2601 65.3109 52.5001C64.595 53.7402 63.0094 54.165 61.7693 53.4491L49.4205 46.3195C48.1804 45.6035 47.7556 44.0179 48.4715 42.7779C49.1874 41.5379 50.773 41.113 52.013 41.829L64.3619 48.9586Z"
    />
    <path d="M53.4491 61.7694C54.165 63.0094 53.7401 64.595 52.5001 65.3109C51.2601 66.0269 49.6745 65.602 48.9586 64.362L41.8289 52.0131C41.113 50.7731 41.5379 49.1875 42.7779 48.4716C44.0179 47.7556 45.6035 48.1805 46.3194 49.4205L53.4491 61.7694Z"
    />
    <path d="M23.6808 49.4201C24.3967 48.18 25.9823 47.7552 27.2223 48.4711C28.4623 49.187 28.8872 50.7726 28.1713 52.0126L21.0416 64.3615C20.3257 65.6015 18.7401 66.0264 17.5001 65.3105C16.2601 64.5946 15.8352 63.009 16.5511 61.7689L23.6808 49.4201Z"
    />
    <path d="M17.9869 41.8285C19.2269 41.1126 20.8125 41.5375 21.5285 42.7775C22.2444 44.0175 21.8195 45.6031 20.5795 46.319L8.23064 53.4487C6.99062 54.1646 5.40502 53.7397 4.68909 52.4997C3.97317 51.2597 4.39803 49.6741 5.63805 48.9582L17.9869 41.8285Z"
    />
    <path d="M20.5795 23.6803C21.8195 24.3962 22.2443 25.9818 21.5284 27.2218C20.8125 28.4618 19.2269 28.8867 17.9869 28.1708L5.63798 21.0411C4.39796 20.3252 3.9731 18.7396 4.68903 17.4996C5.40495 16.2596 6.99056 15.8347 8.23057 16.5506L20.5795 23.6803Z"
    />
    <path d="M28.1712 17.9872C28.8872 19.2272 28.4623 20.8128 27.2223 21.5287C25.9823 22.2446 24.3967 21.8198 23.6807 20.5798L16.5511 8.23088C15.8352 6.99086 16.26 5.40526 17.5001 4.68933C18.7401 3.97341 20.3257 4.39827 21.0416 5.63829L28.1712 17.9872Z"
    />

</svg>
