<svg width="1em" height="1em" viewBox="0 0 70 70" fill="#25B574" xmlns="http://www.w3.org/2000/svg">
    <g clip-path="url(#clip0_478_7123)">
        <path fill-rule="evenodd" clip-rule="evenodd"
              d="M35 66C52.1208 66 66 52.1208 66 35C66 17.8792 52.1208 4 35 4C17.8792 4 4 17.8792 4 35C4 52.1208 17.8792 66 35 66ZM35 70C54.33 70 70 54.33 70 35C70 15.67 54.33 0 35 0C15.67 0 0 15.67 0 35C0 54.33 15.67 70 35 70Z"
        />
        <path fill-rule="evenodd" clip-rule="evenodd"
              d="M53.8284 25.8284L30.4142 49.2426L18 36.8284L20.8284 34L30.4142 43.5858L51 23L53.8284 25.8284Z"
        />
    </g>
    <defs>
        <clipPath id="clip0_478_7123">
            <rect width="100%" height="100%" fill="currentColor"/>
        </clipPath>
    </defs>
</svg>
