<svg width="36" height="28" viewBox="0 0 36 28" fill="none" xmlns="http://www.w3.org/2000/svg">
<path d="M30.0412 2.85628C30.0315 2.83733 30.0151 2.82248 29.9952 2.81439C27.6979 1.76749 25.2737 1.02097 22.783 0.593506C22.7604 0.589327 22.737 0.592342 22.7161 0.60212C22.6954 0.611899 22.6782 0.627944 22.6671 0.647971C22.337 1.24308 22.0373 1.85435 21.7692 2.47945C19.0845 2.07466 16.3535 2.07466 13.6688 2.47945C13.3989 1.85276 13.0945 1.24133 12.7568 0.647971C12.7452 0.628378 12.7279 0.612703 12.7073 0.602989C12.6866 0.593274 12.6634 0.58997 12.6408 0.593506C10.1499 1.02007 7.72547 1.76665 5.42848 2.81445C5.40881 2.82273 5.39222 2.83687 5.381 2.85491C0.787464 9.66838 -0.470876 16.3143 0.146422 22.878C0.148159 22.8941 0.153135 22.9096 0.161054 22.9238C0.168974 22.9379 0.179675 22.9504 0.192521 22.9603C2.86728 24.9273 5.85905 26.4289 9.04014 27.4006C9.06254 27.4073 9.08646 27.4071 9.10868 27.3999C9.13091 27.3925 9.15036 27.3788 9.16446 27.3603C9.84767 26.4369 10.4531 25.4591 10.9745 24.4369C10.9816 24.4229 10.9857 24.4075 10.9865 24.3918C10.9872 24.3761 10.9846 24.3604 10.9788 24.3458C10.973 24.3311 10.9641 24.3179 10.9528 24.3068C10.9415 24.2959 10.9279 24.2874 10.9131 24.282C9.95841 23.9192 9.03419 23.4819 8.14908 22.974C8.13299 22.9647 8.11949 22.9515 8.10976 22.9357C8.10003 22.9199 8.09436 22.9019 8.09325 22.8834C8.09214 22.865 8.09565 22.8465 8.10345 22.8297C8.11124 22.8128 8.12308 22.7982 8.13793 22.787C8.32365 22.6488 8.50949 22.505 8.68684 22.3597C8.70259 22.3469 8.72166 22.3386 8.74188 22.3359C8.76212 22.3332 8.7827 22.3362 8.80133 22.3444C14.6001 24.9729 20.8779 24.9729 26.608 22.3444C26.6268 22.3357 26.6475 22.3322 26.668 22.3348C26.6886 22.3372 26.708 22.3455 26.724 22.3584C26.9014 22.5036 27.0872 22.6488 27.2742 22.787C27.2892 22.798 27.3011 22.8126 27.3091 22.8294C27.3169 22.8461 27.3207 22.8646 27.3196 22.8831C27.3187 22.9015 27.3132 22.9195 27.3036 22.9355C27.2939 22.9513 27.2805 22.9645 27.2645 22.974C26.3814 23.4861 25.4564 23.9232 24.4992 24.2806C24.4844 24.2862 24.4709 24.2949 24.4596 24.306C24.4484 24.3172 24.4395 24.3306 24.4338 24.3454C24.4282 24.3602 24.4257 24.3759 24.4265 24.3917C24.4274 24.4075 24.4317 24.4229 24.439 24.4369C24.9691 25.4534 25.5735 26.4299 26.2476 27.3586C26.2612 27.3776 26.2806 27.3919 26.3029 27.3995C26.3253 27.4069 26.3493 27.4073 26.3719 27.4005C29.5587 26.432 32.5557 24.9304 35.2337 22.9603C35.2468 22.9508 35.2576 22.9387 35.2656 22.9248C35.2736 22.9108 35.2785 22.8954 35.2799 22.8794C36.0189 15.2911 34.0426 8.69961 30.0412 2.85628ZM11.8405 18.8814C10.0946 18.8814 8.6561 17.2902 8.6561 15.3357C8.6561 13.3815 10.0667 11.7901 11.8405 11.7901C13.6281 11.7901 15.0526 13.3953 15.0247 15.3357C15.0247 17.2902 13.614 18.8814 11.8405 18.8814ZM23.6139 18.8814C21.8682 18.8814 20.4296 17.2902 20.4296 15.3357C20.4296 13.3815 21.8403 11.7901 23.6139 11.7901C25.4017 11.7901 26.8262 13.3953 26.7983 15.3357C26.7983 17.2902 25.4017 18.8814 23.6139 18.8814Z" fill="white"/>
</svg>
