<svg width="18" height="18" viewBox="0 0 18 18" xmlns="http://www.w3.org/2000/svg">
<g clip-path="url(#clip0_919_4948)">
<path d="M17.9999 4.57581C18.0066 4.08282 17.9323 3.59208 17.7799 3.12328C17.1394 1.22224 15.455 0.00628012 13.4549 0.00275968C10.4854 -0.00287302 7.51583 -0.00287302 4.54629 0.00275968C4.06576 -0.00243557 3.58758 0.0705669 3.13042 0.218915C1.23228 0.858227 0.00903183 2.5424 0.00481374 4.54061C-0.00127906 7.51608 -0.00127906 10.4916 0.00481374 13.467C-0.00777383 14.257 0.198068 15.0351 0.599566 15.7152C1.51349 17.2304 2.86187 17.9901 4.62855 17.9978C6.0873 18.0049 7.54535 17.9978 9.00411 17.9978C10.4743 17.9978 11.9446 17.9978 13.4148 17.9978C13.9135 18.0059 14.41 17.931 14.8841 17.776C16.8013 17.1212 18.0013 15.4413 18.0027 13.4107C18.0027 10.4671 18.0018 7.52218 17.9999 4.57581ZM8.99568 12.7489C8.00371 12.7451 7.05342 12.3489 6.35193 11.6465C5.65043 10.944 5.2546 9.99236 5.25071 8.99889C5.25071 6.93169 6.96818 5.22216 9.01395 5.24962C11.0956 5.27849 12.7688 6.96126 12.7505 9.00804C12.7315 11.0816 11.0492 12.758 8.99568 12.7489ZM13.8669 5.24469C13.7191 5.24416 13.573 5.21422 13.4369 5.15662C13.3008 5.09902 13.1775 5.01491 13.0742 4.90918C12.9708 4.80345 12.8895 4.6782 12.8349 4.54071C12.7803 4.40322 12.7535 4.25624 12.7561 4.10829C12.7614 3.81307 12.8823 3.53175 13.0927 3.32488C13.303 3.11801 13.5861 3.00213 13.8809 3.00217C14.1764 3.00657 14.4585 3.12647 14.667 3.33629C14.8754 3.54611 14.9937 3.82922 14.9966 4.12519C14.9948 4.4236 14.8747 4.70908 14.6629 4.91897C14.4511 5.12886 14.1648 5.246 13.8669 5.24469Z"/>
</g>
<defs>
<clipPath id="clip0_919_4948">
<rect width="18" height="18" />
</clipPath>
</defs>
</svg>
