<svg width="24" height="24" viewBox="0 0 24 24" fill="none" xmlns="http://www.w3.org/2000/svg">
<g clip-path="url(#clip0_919_4944)">
<path d="M24 15.1381V16.392C24 16.464 23.956 16.528 23.892 16.556C23.5 16.724 22.158 17.34 21.6 18.116C20.176 20.098 19.088 22.932 16.656 22.932H6.50998C2.91402 22.932 0 20.0081 0 16.4V16.284C0 16.188 0.0779825 16.1101 0.173991 16.1101H5.83002C5.94199 16.1101 6.02398 16.214 6.01402 16.324C5.97399 16.692 6.04201 17.068 6.216 17.41C6.55199 18.0921 7.248 18.5181 7.99999 18.5181H10.8V16.332H8.03199C7.89 16.332 7.80602 16.168 7.88802 16.052C7.91799 16.006 7.95202 15.9581 7.988 15.9041C8.25001 15.5321 8.624 14.9541 8.99601 14.296C9.25001 13.8521 9.49599 13.378 9.694 12.9021C9.73402 12.8161 9.76599 12.728 9.79799 12.642C9.85199 12.49 9.90801 12.348 9.948 12.206C9.98802 12.086 10.02 11.96 10.052 11.842C10.146 11.438 10.186 11.01 10.186 10.566C10.186 10.392 10.178 10.21 10.162 10.036C10.154 9.84605 10.13 9.65602 10.106 9.46602C10.09 9.29803 10.06 9.13202 10.028 8.95803C9.98802 8.70403 9.932 8.45205 9.86799 8.19802L9.84599 8.10205C9.79799 7.92802 9.75801 7.76204 9.70202 7.58805C9.54399 7.04202 9.36202 6.51004 9.17 6.01205C9.1 5.81403 9.01999 5.62404 8.93999 5.43405C8.82202 5.14805 8.70199 4.88805 8.592 4.64203C8.53602 4.53002 8.48801 4.42802 8.44001 4.32403C8.38601 4.20602 8.33002 4.08802 8.274 3.97605C8.23401 3.89004 8.18799 3.81004 8.15599 3.73003L7.814 3.09803C7.766 3.01203 7.84601 2.91002 7.93999 2.93603L10.08 3.51602H10.086C10.09 3.51602 10.092 3.51804 10.094 3.51804L10.376 3.59602L10.686 3.68405L10.8 3.71601V2.44403C10.8 1.83002 11.292 1.33203 11.9 1.33203C12.204 1.33203 12.48 1.45603 12.678 1.65802C12.876 1.86004 13 2.13604 13 2.44403V4.33205L13.228 4.39602C13.246 4.40205 13.264 4.41003 13.28 4.42202C13.336 4.46403 13.416 4.52601 13.518 4.60205C13.598 4.66602 13.684 4.74404 13.788 4.82405C13.994 4.99002 14.24 5.20403 14.51 5.45005C14.582 5.51203 14.652 5.57604 14.716 5.64004C15.064 5.96404 15.454 6.34403 15.826 6.76404C15.93 6.88204 16.032 7.00203 16.136 7.12802C16.24 7.25603 16.35 7.38202 16.446 7.50805C16.572 7.67604 16.708 7.85003 16.826 8.03204C16.882 8.11805 16.946 8.20604 17 8.29204C17.152 8.52202 17.286 8.76005 17.414 8.99805C17.468 9.10804 17.524 9.22803 17.572 9.34603C17.714 9.66404 17.826 9.98804 17.898 10.312C17.92 10.382 17.936 10.458 17.944 10.5261V10.5421C17.968 10.638 17.976 10.74 17.984 10.844C18.016 11.176 18 11.508 17.928 11.842C17.898 11.9841 17.858 12.118 17.81 12.26C17.762 12.396 17.714 12.538 17.652 12.672C17.532 12.95 17.39 13.228 17.222 13.488C17.168 13.584 17.104 13.686 17.04 13.7821C16.97 13.884 16.898 13.98 16.834 14.0741C16.746 14.194 16.652 14.32 16.556 14.432C16.47 14.55 16.382 14.6681 16.286 14.772C16.152 14.93 16.024 15.08 15.89 15.2241C15.81 15.318 15.724 15.414 15.636 15.5001C15.55 15.596 15.462 15.682 15.382 15.762C15.248 15.896 15.136 16 15.042 16.086L14.822 16.2881C14.79 16.316 14.748 16.332 14.704 16.332H13V18.5181H15.144C15.624 18.5181 16.08 18.348 16.448 18.036C16.574 17.926 17.124 17.45 17.774 16.732C17.796 16.708 17.824 16.69 17.856 16.6821L23.778 14.9701C23.888 14.9381 24 15.022 24 15.1381Z" fill="white"/>
</g>
<defs>
<clipPath id="clip0_919_4944">
<rect width="24" height="24" fill="white"/>
</clipPath>
</defs>
</svg>
