<svg width="18" height="18" viewBox="0 0 18 18" xmlns="http://www.w3.org/2000/svg">
<g clip-path="url(#clip0_919_4956)">
<path d="M16.9957 7.20909V7.42449C15.2842 7.41884 13.771 6.89977 12.384 5.88282V6.09469C12.3904 8.14271 12.3911 10.1957 12.4047 12.2465C12.4125 13.3722 12.1722 14.4358 11.5418 15.3751C10.3103 17.2155 8.56459 18.1032 6.33613 17.9951C3.91798 17.8779 1.84925 16.2098 1.20175 13.8991C0.386671 11.0001 2.12879 7.9259 5.05966 7.09398C5.80172 6.88011 6.57876 6.81151 7.34732 6.892C7.4115 6.89836 7.47496 6.91319 7.55126 6.92661V9.87647C7.28884 9.84257 7.03926 9.78748 6.78824 9.78183C5.34206 9.74723 4.17684 10.7748 4.02494 12.2063C3.88232 13.534 4.85001 14.7868 6.22203 15.0551C7.78516 15.3609 9.32405 14.1752 9.39536 12.6017C9.41533 12.1561 9.40749 11.7091 9.4082 11.2599C9.4082 7.59421 9.40986 3.92825 9.41319 0.262058V0.00146484H12.3255C12.4289 0.481691 12.4888 0.962623 12.6371 1.41389C13.2176 3.17943 14.9091 4.4259 16.7846 4.48734C16.9529 4.49299 17.0028 4.53678 16.9985 4.70627C16.9907 5.54031 16.9957 6.37505 16.9957 7.20909Z" fill="inherit"/>
</g>
<defs>
<clipPath id="clip0_919_4956">
<rect width="18" height="18" />
</clipPath>
</defs>
</svg>
