<svg width="18" height="16" viewBox="0 0 18 16" xmlns="http://www.w3.org/2000/svg">
<path d="M18 2.3516C17.594 2.9784 17.1239 3.50434 16.5611 3.93662C16.2976 4.13835 16.1979 4.34007 16.1979 4.67869C16.205 9.28964 13.1777 14.1095 7.99921 15.2334C5.3708 15.8026 2.85635 15.4784 0.477246 14.1888C0.313415 14.1023 0.156708 14.0015 0 13.9006C1.95172 13.9582 3.69687 13.4827 5.32093 12.2579C4.48753 12.1643 3.77523 11.9409 3.16977 11.4582C2.57143 10.9827 2.1298 10.3919 1.86624 9.59944H3.37634C1.63831 8.94382 0.669569 7.74065 0.53423 5.84584C1.06134 5.98993 1.55283 6.13402 2.04432 6.27091C2.06569 6.24209 2.07994 6.21327 2.10131 6.19166C0.548477 4.79396 0.178077 3.15852 1.07558 1.18445C3.12703 3.598 5.65572 4.94526 8.79699 5.13979C8.61179 3.97264 8.78987 2.93517 9.46656 2.02019C10.7772 0.240651 13.3059 -0.0187156 14.9371 1.47264C15.1365 1.65275 15.3004 1.69598 15.5354 1.60953C16.1765 1.37177 16.8247 1.14123 17.4943 0.903475C17.2663 1.68878 16.7392 2.27235 16.091 2.76947C16.1053 2.80549 16.1195 2.83431 16.1338 2.87033C16.7463 2.69742 17.3518 2.53172 18 2.3516Z"/>
</svg>
