<svg width="22" height="22" viewBox="0 0 22 22" fill="none" xmlns="http://www.w3.org/2000/svg">
<path fill-rule="evenodd" clip-rule="evenodd" d="M1.82222 20.5H5.52141C6.39235 20.5 6.82782 20.5 7.21646 20.3951C7.64259 20.2717 8.03123 20.0528 8.35433 19.7516C8.65113 19.4761 8.86527 19.1109 9.2878 18.3903L9.30019 18.3691L14.098 10.1049C14.524 9.37937 14.7348 9.01434 14.8284 8.63106C14.9314 8.21582 14.9314 7.77781 14.8284 7.36257C14.7355 6.9823 14.5227 6.62 14.1033 5.90583L14.1028 5.90509L14.0933 5.88879L12.2156 2.6948C11.8269 2.02864 11.6302 1.69552 11.3821 1.57234C11.3181 1.54063 11.2512 1.51651 11.1827 1.5H10.7292C10.6608 1.51651 10.5938 1.54063 10.5299 1.57234C10.2817 1.69552 10.085 2.02864 9.69636 2.6948L0.562635 18.3828C0.178682 19.0399 -0.0133487 19.3685 0.000720925 19.6376C0.0194441 19.9297 0.173992 20.1943 0.426847 20.3541C0.660941 20.5 1.04493 20.5 1.82222 20.5ZM20.1635 20.5H14.8631C14.0811 20.5 13.6877 20.5 13.4583 20.3541C13.2055 20.1943 13.0509 19.9252 13.0322 19.6331C13.0183 19.366 13.2118 19.0405 13.5991 18.389L13.6081 18.3738L16.2538 13.9478C16.6424 13.2954 16.8391 12.9714 17.0826 12.8482C17.3494 12.7159 17.6633 12.7159 17.9301 12.8482C18.1718 12.9681 18.36 13.2783 18.7328 13.8925L18.7333 13.8935L18.7636 13.9433L21.4186 18.3692L21.457 18.4336C21.825 19.0524 22.0128 19.3683 21.9993 19.6287C21.9851 19.9205 21.826 20.1899 21.5732 20.3496C21.3389 20.5 20.9455 20.5 20.1635 20.5Z" fill="#CDCDCD"/>
</svg>
