<svg width="22" height="22" viewBox="0 0 22 22" fill="none" xmlns="http://www.w3.org/2000/svg">
<path d="M3.63861 10.9999L3.6504 15.2549L7.32258 17.3823V19.8734L1.50131 16.512V9.75568L3.63861 10.9999ZM3.63861 6.74498V9.22446L1.5 7.97892V5.49945L3.63861 4.25391L5.7877 5.49945L3.63861 6.74498ZM8.85614 5.49945L10.9948 4.25391L13.1438 5.49945L10.9948 6.74498L8.85614 5.49945Z" fill="#CDCDCD"/>
<path d="M5.18402 14.3729V11.8819L7.32263 13.1274V15.6069L5.18402 14.3729ZM8.85619 18.2746L10.9948 19.5201L13.1439 18.2746V20.7541L10.9948 21.9996L8.85619 20.7541V18.2746ZM16.211 5.49945L18.3496 4.25391L20.4987 5.49945V7.97892L18.3496 9.22446V6.74498L16.211 5.49945ZM18.3496 15.2549L18.3614 10.9999L20.5 9.75439V16.5107L14.6788 19.8721V17.3811L18.3496 15.2549Z" fill="#CDCDCD"/>
<path d="M16.8159 14.3739L14.6773 15.6078V13.1283L16.8159 11.8828V14.3739Z" fill="#CDCDCD"/>
<path d="M16.8161 7.62667L16.8279 10.1177L13.1452 12.2452V16.5105L11.0066 17.7444L8.86799 16.5105V12.2452L5.18533 10.1177V7.62667L7.33311 6.38113L10.9935 8.51892L14.6762 6.38113L16.8252 7.62667H16.8161ZM5.18402 3.37301L10.9948 0L16.8161 3.37301L14.6775 4.61855L10.9948 2.48076L7.32263 4.61855L5.18402 3.37301Z" fill="#CDCDCD"/>
</svg>
