<svg width="22" height="22" viewBox="0 0 22 22" fill="none" xmlns="http://www.w3.org/2000/svg">
<g clip-path="url(#clip0_665_4738)">
<path fill-rule="evenodd" clip-rule="evenodd" d="M1.69231 5.49978L11.0004 0L20.3085 5.49978V16.5002L11.0004 22L1.69231 16.5002V5.49978ZM7.32407 4.7526H14.6287L15.5244 8.56359H13.5479L12.8246 10.5417L13.0599 12.9303H9.43074L9.66604 10.5417L8.94111 8.56359H6.47562L7.32407 4.7526ZM8.61994 11.266V13.7988L10.2696 15.4146V16.1627L8.69122 17.6827H7.34726L4.00152 11.724L6.45243 9.86645L8.61994 11.266ZM13.3801 11.2652L15.5244 9.84191L17.9753 11.7232L14.6528 17.6573H13.3328L11.7544 16.1619V15.4138L13.3801 13.7979V11.2652Z" fill="#CDCDCD"/>
</g>
<defs>
<clipPath id="clip0_665_4738">
<rect width="22" height="22" fill="white"/>
</clipPath>
</defs>
</svg>
