<svg width="22" height="22" viewBox="0 0 22 22" fill="none" xmlns="http://www.w3.org/2000/svg">
<path d="M10.998 0L10.8462 0.50135V15.0481L10.998 15.1953L17.9432 11.204L10.998 0Z" fill="#CDCDCD"/>
<path d="M10.998 0L10.8462 0.50135V15.0481L10.998 15.1953L17.9432 11.204L10.998 0Z" fill="black" fill-opacity="0.1"/>
<path d="M10.998 0L4.05263 11.204L10.998 15.1953V8.13476V0Z" fill="#CDCDCD"/>
<path d="M10.998 16.4737L10.9124 16.5751V21.7569L10.998 21.9997L17.9474 12.4844L10.998 16.4737Z" fill="#CDCDCD"/>
<path d="M10.998 16.4737L10.9124 16.5751V21.7569L10.998 21.9997L17.9474 12.4844L10.998 16.4737Z" fill="black" fill-opacity="0.1"/>
<path d="M10.998 21.9997V16.4737L4.05263 12.4844L10.998 21.9997Z" fill="#CDCDCD"/>
<path d="M10.998 15.1954L17.9432 11.204L10.998 8.13477V15.1954Z" fill="#CDCDCD"/>
<path d="M10.998 15.1954L17.9432 11.204L10.998 8.13477V15.1954Z" fill="black" fill-opacity="0.2"/>
<path d="M4.05263 11.204L10.998 15.1953V8.13477L4.05263 11.204Z" fill="#CDCDCD"/>
<path d="M4.05263 11.204L10.998 15.1953V8.13477L4.05263 11.204Z" fill="black" fill-opacity="0.1"/>
</svg>
