<svg width="22" height="22" viewBox="0 0 22 22" fill="none" xmlns="http://www.w3.org/2000/svg">
<path fill-rule="evenodd" clip-rule="evenodd" d="M12.3 7.62814L16.2 5.30653V9.94975L12.3 7.62814ZM16.2 17.5779L11 20.6734L5.8 17.5779V12.1608L11 15.2563L16.2 12.1608V17.5779ZM5.8 5.30653L9.7 7.62814L5.8 9.94975V5.30653ZM11.65 8.73367L15.55 11.0553L11.65 13.3769V8.73367ZM10.35 13.3769L6.45 11.0553L10.35 8.73367V13.3769ZM15.55 4.20101L11 6.85427L6.45 4.20101L11 1.43719L15.55 4.20101ZM4.5 3.75879V18.2412L11 22L17.5 18.2412V3.75879L11 0L4.5 3.75879Z" fill="#CDCDCD"/>
</svg>
