<svg width="22" height="22" viewBox="0 0 22 22" fill="currentColor" xmlns="http://www.w3.org/2000/svg">
    <path fill-rule="evenodd" clip-rule="evenodd"
          d="M11 0L20.5263 5.5V16.5L11 22L1.47372 16.5V5.5L11 0ZM11.4079 9.08181L11.408 9.08156C11.572 8.83112 11.736 8.58068 11.9011 8.32712C11.5594 8.38236 11.2195 8.43761 10.8806 8.4927C10.1998 8.60336 9.52281 8.71341 8.84203 8.82161C8.84994 8.87592 8.85692 8.92933 8.86384 8.98225L8.86384 8.98231C8.87174 9.04274 8.87956 9.10255 8.88858 9.16236C8.92032 9.38264 8.951 9.60293 8.98168 9.82322C9.01235 10.0434 9.04301 10.2636 9.07474 10.4838C9.07897 10.5191 9.08426 10.5554 9.08955 10.5918C9.09484 10.6282 9.10013 10.6645 9.10437 10.6998C9.10859 10.7289 9.12129 10.7372 9.14667 10.7414C9.50187 10.8078 9.85705 10.8784 10.2122 10.949L10.2123 10.949L10.2129 10.9492C10.3123 10.9679 10.4118 10.9876 10.5112 11.0073C10.6106 11.0271 10.7101 11.0468 10.8095 11.0655C10.8125 11.0655 10.8155 11.0676 10.8215 11.0718L10.8307 11.078C10.4982 11.1777 10.1703 11.2774 9.84245 11.3771C9.62367 11.4436 9.40489 11.5101 9.18476 11.5766L9.28797 12.4201C9.44808 13.7281 9.60768 15.032 9.76441 16.3387C9.76019 16.3429 9.75595 16.3429 9.75172 16.3429L9.68867 16.2589L9.67989 16.2472C8.21871 14.3011 6.75748 12.355 5.29214 10.4048C5.29003 10.4048 5.28898 10.4059 5.28792 10.4069C5.28686 10.4079 5.2858 10.409 5.28368 10.409C5.34509 10.7664 5.40703 11.1244 5.46912 11.4832L5.46919 11.4836C5.58249 12.1384 5.6963 12.7961 5.80833 13.459L5.46216 13.1392C5.29277 12.9827 5.12335 12.8263 4.94942 12.6653L4.97481 15.6323C4.97058 15.6323 4.96635 15.6323 4.96211 15.6364C4.35707 13.7457 3.75203 11.8592 3.14275 9.9685C3.14487 9.9685 3.14592 9.96746 3.14698 9.96642C3.14804 9.96538 3.1491 9.96434 3.15121 9.96434C3.32909 10.1432 3.5059 10.3231 3.68271 10.503L3.68277 10.503C3.85923 10.6826 4.0357 10.8621 4.21322 11.0406C4.21745 11.0406 4.22168 11.0364 4.22168 11.0364C4.12405 10.3229 4.0252 9.60934 3.92644 8.89644L3.92641 8.89619C3.84114 8.28065 3.75593 7.66559 3.67164 7.05141C3.67375 7.04934 3.67587 7.0483 3.67798 7.04726C3.6801 7.04622 3.68221 7.04518 3.68433 7.0431C4.46644 7.94615 5.24961 8.84921 6.03278 9.75227L6.03395 9.75362C6.81801 10.6577 7.60208 11.5618 8.38508 12.4659C8.38931 12.4659 8.39353 12.4617 8.39353 12.4617L8.3571 12.3324L8.35609 12.3288C7.90738 10.7359 7.45857 9.14263 7.00573 7.53759L9.94396 7.28817C11.4114 7.16354 12.8789 7.03891 14.3509 6.91429C14.1267 7.28827 13.9109 7.64979 13.6866 8.02793C15.2727 7.91997 16.8515 7.81559 18.4264 7.71147L18.7936 7.68719V7.69965C17.1848 8.13613 15.5744 8.57261 13.9605 9.01005L13.9602 9.01011L10.9153 9.83553C11.0802 9.58221 11.244 9.33201 11.4079 9.08181ZM12.9697 14.4061C12.3388 13.0202 11.7095 11.6378 11.0803 10.2511C11.5972 10.1092 12.1139 9.96738 12.6306 9.82554C14.7025 9.25681 16.7743 8.68808 18.857 8.11935C18.3644 9.28543 17.8783 10.4452 17.3901 11.6097C17.3164 11.7855 17.2427 11.9615 17.1688 12.1376L17.1658 12.1317C16.9892 11.7847 16.8166 11.4459 16.6399 11.1029C16.1499 11.9126 15.6609 12.7202 15.172 13.5277C14.6772 14.3449 14.1825 15.1621 13.6866 15.9813C13.4474 15.4555 13.2084 14.9306 12.9697 14.4061ZM13.1277 12.0683C13.3861 12.8317 13.6448 13.5961 13.9066 14.3649C14.7571 12.7942 15.5991 11.2359 16.4453 9.6693C15.1633 9.96434 13.8897 10.2552 12.6119 10.5461C12.7842 11.0538 12.9559 11.5608 13.1277 12.0683Z"
    />
</svg>
