<svg width="22" height="22" viewBox="0 0 22 22" fill="none" xmlns="http://www.w3.org/2000/svg">
<path d="M16.6146 7.23702C16.2135 7.00716 15.6979 7.00716 15.2396 7.23702L12.0312 9.13328L9.85417 10.34L6.70312 12.2363C6.30208 12.4661 5.78646 12.4661 5.32812 12.2363L2.86458 10.7422C2.46354 10.5124 2.17708 10.0527 2.17708 9.53552V6.66239C2.17708 6.20269 2.40625 5.74299 2.86458 5.45567L5.32812 4.01911C5.72917 3.78925 6.24479 3.78925 6.70312 4.01911L9.16667 5.51313C9.56771 5.74299 9.85417 6.20269 9.85417 6.71985V8.61612L12.0312 7.35194V5.39821C12.0312 4.93851 11.8021 4.47881 11.3437 4.19149L6.76042 1.49075C6.35937 1.2609 5.84375 1.2609 5.38542 1.49075L0.6875 4.24896C0.229167 4.47881 0 4.93851 0 5.39821V10.7997C0 11.2594 0.229167 11.7191 0.6875 12.0064L5.32812 14.7072C5.72917 14.937 6.24479 14.937 6.70312 14.7072L9.85417 12.8684L12.0312 11.6042L15.1823 9.76537C15.5833 9.53552 16.099 9.53552 16.5573 9.76537L19.0208 11.2019C19.4219 11.4318 19.7083 11.8915 19.7083 12.4087V15.2818C19.7083 15.7415 19.4792 16.2012 19.0208 16.4885L16.6146 17.9251C16.2135 18.1549 15.6979 18.1549 15.2396 17.9251L12.776 16.4885C12.375 16.2587 12.0885 15.799 12.0885 15.2818V13.443L9.91146 14.7072V16.6034C9.91146 17.0631 10.1406 17.5228 10.599 17.8101L15.2396 20.5109C15.6406 20.7407 16.1562 20.7407 16.6146 20.5109L21.2552 17.8101C21.6562 17.5803 21.9427 17.1206 21.9427 16.6034V11.1445C21.9427 10.6848 21.7135 10.2251 21.2552 9.93776L16.6146 7.23702Z" fill="#CDCDCD"/>
</svg>
