<svg width="22" height="22" fill="currentColor" viewBox="0 0 22 22" xmlns="http://www.w3.org/2000/svg">
    <g clip-path="url(#clip0_506_4473)">
        <path fill-rule="evenodd" clip-rule="evenodd"
              d="M11 22C17.0962 22 22 17.0962 22 11C22 4.9038 17.0962 0 11 0C4.9038 0 0 4.9038 0 11C0 17.0962 4.9038 22 11 22ZM13.9287 12.6877C13.9287 11.1335 12.9959 10.6005 11.1304 10.3777C9.79796 10.1997 9.53146 9.84471 9.53146 9.22324C9.53146 8.60177 9.97598 8.20203 10.8639 8.20203C11.6634 8.20203 12.1079 8.46852 12.3297 9.13476C12.3744 9.26801 12.5077 9.35649 12.6409 9.35649H13.352C13.53 9.35649 13.6632 9.22324 13.6632 9.04522V9.00045C13.4852 8.02294 12.6857 7.26822 11.6645 7.17975V6.11376C11.6645 5.93574 11.5313 5.80249 11.3095 5.75879H10.6433C10.4653 5.75879 10.332 5.89204 10.2883 6.11376V7.13498C8.95583 7.313 8.11157 8.20096 8.11157 9.31172C8.11157 10.7774 8.99953 11.3552 10.865 11.5769C12.109 11.7987 12.5088 12.0652 12.5088 12.7762C12.5088 13.4872 11.8873 13.9754 11.043 13.9754C9.88857 13.9754 9.48882 13.4872 9.35557 12.8209C9.3108 12.6429 9.17756 12.5544 9.04431 12.5544H8.28959C8.11157 12.5544 7.97832 12.6877 7.97832 12.8657V12.9105C8.15634 14.0212 8.86629 14.8207 10.332 15.0425V16.1084C10.332 16.2865 10.4653 16.4197 10.687 16.4634H11.3532C11.5312 16.4634 11.6645 16.3302 11.7082 16.1084V15.0425C13.0396 14.8197 13.9287 13.8869 13.9287 12.6877ZM4.7793 8.82285C3.49052 12.2425 5.26752 16.1067 8.73197 17.3507C8.86522 17.4403 8.99847 17.6172 8.99847 17.7515V18.373C8.99847 18.4626 8.99847 18.5063 8.9537 18.551C8.90893 18.7291 8.73197 18.8175 8.55395 18.7291C6.06701 17.9296 4.15676 16.0193 3.35727 13.5324C2.02479 9.31214 4.33478 4.82647 8.55395 3.49399C8.59872 3.44922 8.6872 3.44922 8.73197 3.44922C8.90999 3.49292 8.99847 3.62617 8.99847 3.80419V4.42566C8.99847 4.64845 8.90999 4.7817 8.73197 4.87018C6.91127 5.53642 5.44554 6.95738 4.7793 8.82285ZM13.0396 3.67094C13.0844 3.49292 13.2613 3.40445 13.4394 3.49292C15.8826 4.29241 17.8366 6.20266 18.636 8.73331C19.9685 12.9535 17.6585 17.4392 13.4394 18.7717C13.3946 18.8165 13.3061 18.8165 13.2613 18.8165C13.0833 18.7728 12.9948 18.6395 12.9948 18.4615V17.84C12.9948 17.6172 13.0833 17.484 13.2613 17.3955C15.082 16.7293 16.5478 15.3083 17.214 13.4428C18.5028 10.0232 16.7258 6.15895 13.2613 4.91495C13.1281 4.82541 12.9948 4.64845 12.9948 4.47043V3.84896C12.9948 3.75942 12.9948 3.71572 13.0396 3.67094Z"/>
    </g>
    <defs>
        <clipPath id="clip0_506_4473">
            <rect width="22" height="22"/>
        </clipPath>
    </defs>
</svg>
