<svg width="1em" height="1em" viewBox="0 0 25 25" fill="currentColor" xmlns="http://www.w3.org/2000/svg">
    <path fill-rule="evenodd" clip-rule="evenodd"
          d="M12.5 0L23.3253 6.25V18.75L12.5 25L1.67468 18.75V6.25L12.5 0ZM12.4037 11.1767C12.5912 10.8888 12.7774 10.6043 12.9637 10.3199C13.1501 10.0353 13.3364 9.75076 13.524 9.46263C13.1362 9.52533 12.7505 9.58802 12.3659 9.65055L12.3645 9.65077L12.3639 9.65087C11.5904 9.7766 10.8212 9.90163 10.0478 10.0246C10.0567 10.0863 10.0647 10.147 10.0725 10.2071C10.0815 10.2758 10.0904 10.3438 10.1007 10.4118C10.1367 10.6621 10.1716 10.9124 10.2065 11.1627C10.2413 11.4129 10.2762 11.6632 10.3122 11.9134C10.317 11.9535 10.323 11.9948 10.329 12.0361C10.335 12.0774 10.3411 12.1188 10.3459 12.1589C10.3507 12.192 10.3651 12.2014 10.3939 12.2061C10.7974 12.2816 11.2009 12.3618 11.6044 12.442L11.6056 12.4422C11.7184 12.4635 11.8313 12.4859 11.9442 12.5083L11.9445 12.5083C12.0575 12.5308 12.1705 12.5532 12.2835 12.5745C12.2869 12.5745 12.2903 12.5768 12.2972 12.5816L12.3076 12.5886C11.9298 12.7019 11.5572 12.8152 11.1845 12.9285L11.1826 12.9291C10.9346 13.0045 10.6867 13.0799 10.4372 13.1553L10.5545 14.1139C10.7365 15.6002 10.9178 17.0819 11.0959 18.5667C11.0911 18.5714 11.0863 18.5714 11.0815 18.5714L11.0092 18.4751L11.0071 18.4723C9.34423 16.2576 7.68136 14.0429 6.0138 11.8237C6.0114 11.8237 6.0102 11.8248 6.009 11.826C6.00779 11.8272 6.00659 11.8284 6.00418 11.8284C6.07389 12.2341 6.1442 12.6404 6.21468 13.0478L6.21492 13.0492C6.34369 13.7933 6.47304 14.5409 6.60038 15.2943L6.2068 14.9307L6.20551 14.9295C6.01352 14.7522 5.82148 14.5748 5.62434 14.3924L5.65319 17.764C5.64839 17.764 5.64358 17.764 5.63877 17.7687C4.95122 15.6202 4.26367 13.4764 3.57131 11.3278C3.57371 11.3278 3.57491 11.3267 3.57611 11.3255C3.57732 11.3243 3.57852 11.3231 3.58092 11.3231C3.78304 11.5263 3.98395 11.7307 4.18486 11.9351L4.1851 11.9354C4.38558 12.1394 4.58606 12.3433 4.78775 12.5461C4.79255 12.5461 4.79736 12.5414 4.79736 12.5414C4.68644 11.7307 4.57414 10.92 4.46193 10.1101L4.46187 10.1096L4.46184 10.1094C4.36494 9.40987 4.26811 8.71091 4.17231 8.01297C4.17472 8.01061 4.17712 8.00943 4.17953 8.00825C4.18193 8.00707 4.18433 8.00589 4.18674 8.00353C5.07487 9.029 5.96421 10.0545 6.85354 11.0799L6.8567 11.0836C7.7477 12.111 8.6387 13.1384 9.5285 14.1658C9.5333 14.1658 9.53811 14.1611 9.53811 14.1611L9.49773 14.0177L9.49636 14.0128C8.98619 12.2018 8.47592 10.3903 7.96106 8.56545L11.2983 8.28215C12.9664 8.14048 14.6346 7.99881 16.3079 7.85714C16.053 8.28213 15.8078 8.69294 15.553 9.12265C17.3552 8.99998 19.149 8.88138 20.9385 8.76307L20.9391 8.76303L21.3563 8.73544V8.74961C19.5286 9.24548 17.6991 9.74136 15.8655 10.2383L12.4037 11.1767ZM14.7383 16.3705C14.0214 14.7956 13.3063 13.2248 12.5912 11.6489C13.1786 11.4877 13.7659 11.3265 14.3531 11.1653C16.7074 10.5191 19.0618 9.8728 21.4284 9.22653C20.8686 10.5519 20.316 11.8702 19.7611 13.1937C19.6775 13.3933 19.5938 13.5929 19.51 13.7927L19.507 13.7868C19.3061 13.3922 19.1099 13.0069 18.909 12.617C18.3523 13.5368 17.7968 14.4542 17.2413 15.3717C16.679 16.3006 16.1166 17.2294 15.553 18.1606C15.2811 17.563 15.0095 16.9665 14.7383 16.3705ZM14.9177 13.7138C15.2114 14.5814 15.5055 15.45 15.803 16.3237C16.7694 14.5388 17.7262 12.7681 18.6878 10.9878C17.231 11.3231 15.7838 11.6537 14.3317 11.9842C14.5275 12.5611 14.7226 13.1372 14.9177 13.7138Z"
    />
</svg>
